<svg aria-hidden="true" style="position: absolute; width: 0; height: 0; overflow: hidden;" version="1.1" xmlns="http://www.w3.org/2000/svg" xmlns:xlink="http://www.w3.org/1999/xlink">
<defs>
<symbol id="icon-bx_bx-edit" viewBox="0 0 34 32">
<path fill="#fff" style="fill: var(--color1, #fff)" d="M9.708 22.684l6.12-0.020 13.358-12.72c0.524-0.504 0.813-1.173 0.813-1.885s-0.288-1.381-0.813-1.885l-2.199-2.115c-1.048-1.008-2.878-1.003-3.918-0.004l-13.361 12.723v5.907zM25.025 5.944l2.204 2.111-2.215 2.109-2.199-2.113 2.211-2.107zM12.482 17.889l8.362-7.964 2.199 2.115-8.361 7.961-2.201 0.007v-2.119z"></path>
<path fill="#fff" style="fill: var(--color1, #fff)" d="M6.934 28h19.415c1.53 0 2.774-1.196 2.774-2.667v-11.557l-2.774 2.667v8.891h-15.036c-0.036 0-0.073 0.013-0.11 0.013-0.046 0-0.092-0.012-0.139-0.013h-4.131v-18.667h9.495l2.774-2.667h-12.269c-1.53 0-2.774 1.196-2.774 2.667v18.667c0 1.471 1.244 2.667 2.774 2.667z"></path>
</symbol>
<symbol id="icon-ic_baseline-delete-forever" viewBox="0 0 34 32">
<path fill="#fff" style="fill: var(--color1, #fff)" d="M8.321 25.333c0 1.467 1.248 2.667 2.774 2.667h11.095c1.525 0 2.774-1.2 2.774-2.667v-16h-16.642v16zM11.732 15.84l1.955-1.88 2.954 2.827 2.94-2.827 1.955 1.88-2.94 2.827 2.94 2.827-1.955 1.88-2.94-2.827-2.94 2.827-1.955-1.88 2.94-2.827-2.954-2.827zM21.496 5.333l-1.387-1.333h-6.934l-1.387 1.333h-4.854v2.667h19.415v-2.667h-4.854z"></path>
</symbol>
</defs>
</svg>